<svg xmlns="http://www.w3.org/2000/svg" width="82.051" height="77.045" viewBox="0 0 82.051 77.045"><g transform="translate(0 0)"><path d="M87.441,378.82l-.721.474a.9.9,0,0,1-.986,0l-1.441-.948a4.1,4.1,0,0,0-4.507,0l-1.441.947a.9.9,0,0,1-.986,0l-1.442-.948a4.1,4.1,0,0,0-4.507,0l-1.441.947a.9.9,0,0,1-.986,0l-.721-.474A1.6,1.6,0,1,0,66.5,381.5l.721.474a4.1,4.1,0,0,0,4.507,0l1.441-.947a.9.9,0,0,1,.986,0l1.441.948a4.1,4.1,0,0,0,4.507,0l1.441-.947a.9.9,0,0,1,.986,0l1.441.948a4.1,4.1,0,0,0,4.507,0l.721-.474a1.6,1.6,0,0,0-1.761-2.678Z" transform="translate(-55.238 -319.651)" fill="#ebe76a"/><path d="M165.113,314.669H168.8a1.6,1.6,0,0,0,0-3.205h-3.691A1.6,1.6,0,0,0,165.113,314.669Z" transform="translate(-137.315 -264.053)" fill="#ebe76a"/><path d="M77.387,314.669h3.691a1.6,1.6,0,0,0,0-3.205H77.387A1.6,1.6,0,0,0,77.387,314.669Z" transform="translate(-63.648 -264.053)" fill="#ebe76a"/><path d="M61.58,47.57a22.764,22.764,0,0,0,.975-15.991,1.6,1.6,0,1,0-3.061.951c3.947,11.926-5.561,25.061-18.1,25.181A19.668,19.668,0,0,1,21.525,38.3c-.2-15.33,17.719-24.841,30.286-16.1a1.6,1.6,0,0,0,1.8-2.655c-18.93-12.577-42.458,7.3-33.292,28.04A22.657,22.657,0,0,0,0,70.092c.066,22,28.433,30.83,41.021,13.156C53.747,100.992,81.99,92,82.051,70.092A22.655,22.655,0,0,0,61.58,47.57ZM22.625,89.512c-25.37-.925-25.879-37.132-.617-38.83A22.812,22.812,0,0,0,39.728,60.89a19.421,19.421,0,0,1-17.1,28.622Zm36.8,0a19.446,19.446,0,0,1-16.569-9.284,22.824,22.824,0,0,0,.4-19.422A22.48,22.48,0,0,0,59.884,50.677C85.283,52.2,84.87,88.582,59.426,89.512Z" transform="translate(0 -15.619)" fill="#ebe76a"/><path d="M396.869,311.431a1.6,1.6,0,0,0,.741-.183l3.37-1.763a1.6,1.6,0,0,0-1.485-2.84l-3.37,1.763a1.6,1.6,0,0,0,.744,3.023Z" transform="translate(-331.921 -259.853)" fill="#ebe76a"/><path d="M306.427,309.5l3.53,1.763a1.622,1.622,0,0,0,2.15-.718,1.6,1.6,0,0,0-.718-2.15l-3.53-1.763a1.6,1.6,0,1,0-1.432,2.867Z" transform="translate(-256.575 -259.852)" fill="#ebe76a"/><path d="M324.347,372.9c-5.662-4.649-14.968-4.606-20.568,0a1.6,1.6,0,1,0,2.072,2.445,13.756,13.756,0,0,1,16.427,0,1.6,1.6,0,0,0,2.068-2.448Z" transform="translate(-254.621 -312.729)" fill="#ebe76a"/><path d="M204.039,103.223a1.6,1.6,0,0,0,1.6-1.6V97.93a1.6,1.6,0,0,0-3.205,0v3.691A1.6,1.6,0,0,0,204.039,103.223Z" transform="translate(-169.995 -83.402)" fill="#ebe76a"/><path d="M291.572,101.62V97.93a1.6,1.6,0,0,0-3.205,0v3.691A1.6,1.6,0,0,0,291.572,101.62Z" transform="translate(-242.155 -83.402)" fill="#ebe76a"/><path d="M188.074,183.159a1.6,1.6,0,0,0,.186,2.259c5.662,4.649,14.968,4.606,20.568,0a1.6,1.6,0,1,0-2.072-2.445,13.756,13.756,0,0,1-16.427,0A1.6,1.6,0,0,0,188.074,183.159Z" transform="translate(-157.615 -155.835)" fill="#ebe76a"/><path d="M351.741,72.236a1.618,1.618,0,0,0,2.093.867,1.6,1.6,0,0,0-1.226-2.96A1.618,1.618,0,0,0,351.741,72.236Z" transform="translate(-295.274 -61.307)" fill="#ebe76a"/></g></svg>