<svg xmlns="http://www.w3.org/2000/svg" xmlns:xlink="http://www.w3.org/1999/xlink" width="89.322" height="90.542" viewBox="0 0 89.322 90.542"><defs><linearGradient id="a" x1="0.5" x2="0.5" y2="1" gradientUnits="objectBoundingBox"><stop offset="0" stop-color="#fff"/><stop offset="1" stop-color="#f8f8f8"/></linearGradient><filter id="b" x="0" y="1.221" width="89.322" height="89.322" filterUnits="userSpaceOnUse"><feOffset dy="3" input="SourceAlpha"/><feGaussianBlur stdDeviation="3" result="c"/><feFlood flood-opacity="0.161"/><feComposite operator="in" in2="c"/><feComposite in="SourceGraphic"/></filter></defs><g transform="translate(-1070.34 -2130)"><g transform="translate(661.579 -0.756)"><g transform="translate(358.421 2130.756)"><path d="M43.551,0A43.551,43.551,0,1,1,0,43.551,43.551,43.551,0,0,1,43.551,0Z" transform="translate(51.449)" fill="#ebe76a"/><g transform="translate(59.34 7.221)"><g transform="matrix(1, 0, 0, 1, -9, -7.22)" filter="url(#b)"><circle cx="35.661" cy="35.661" r="35.661" transform="translate(9 7.22)" fill="url(#a)"/></g></g><g transform="translate(132.845 66.53) rotate(167)"><circle cx="31.555" cy="31.555" r="31.555" transform="translate(0 0)" fill="url(#a)"/></g></g></g><g transform="translate(1096.051 2149.032)"><path d="M33.987,29.554c-3.086,0-5.827,1.976-7.715,3.824l-4.581-.832a2.178,2.178,0,0,1-1-1.795V29.6A10.379,10.379,0,0,0,26.9,22.9h.089a3.325,3.325,0,0,0,2.336-5.668c-.03-.03-.066-.052-.1-.081a9.89,9.89,0,0,0,1.8-5.245C31.032,4.787,24.321,0,14.334,0A11.266,11.266,0,0,0,2.955,11.052,9.225,9.225,0,0,0,4.715,17.19c-.016.016-.035.027-.05.042A3.325,3.325,0,0,0,7,22.9h.089A10.379,10.379,0,0,0,13.3,29.6v1.152a2.179,2.179,0,0,1-1.007,1.8l-5.3.965a7.658,7.658,0,0,0-2.562.974,7.563,7.563,0,0,0-2.258,2.093A9.357,9.357,0,0,0,.85,39.625l-.341,1.16-.443,1.5A1.593,1.593,0,0,0,1.6,44.331h30.8a1.626,1.626,0,0,0,.5-.089,7.432,7.432,0,0,0,1.092.089c4.906,0,8.94-4.994,10.061-6.524a1.456,1.456,0,0,0,0-1.729C42.928,34.548,38.893,29.554,33.987,29.554ZM27.223,21.4a10.258,10.258,0,0,0,.115-1.454V17.767a1.807,1.807,0,0,1,.941.51A1.843,1.843,0,0,1,27.223,21.4ZM4.433,11.052a9.78,9.78,0,0,1,9.9-9.574c9.1,0,15.22,4.193,15.22,10.433a8.458,8.458,0,0,1-1.611,4.5,3.139,3.139,0,0,0-.605-.123v-.847A2.948,2.948,0,0,0,24.615,12.5c-7.774-.533-11.426-4.114-11.463-4.147a.739.739,0,0,0-1.182.18,8.546,8.546,0,0,1-3.72,3.6,2.938,2.938,0,0,0-1.6,2.624v1.533a3.271,3.271,0,0,0-.661.14A7.708,7.708,0,0,1,4.433,11.052Zm.739,8.528a1.835,1.835,0,0,1,.541-1.307,1.8,1.8,0,0,1,.937-.505v2.182A10.258,10.258,0,0,0,6.764,21.4,1.836,1.836,0,0,1,5.172,19.58Zm2.955.369V14.756a1.468,1.468,0,0,1,.8-1.309,10.215,10.215,0,0,0,3.893-3.441c1.478,1.15,5.258,3.526,11.694,3.965a1.465,1.465,0,0,1,1.346,1.471v4.507a8.866,8.866,0,0,1-17.733,0Zm8.866,10.344a10.344,10.344,0,0,0,2.217-.245v.7a3.554,3.554,0,0,0,1.207,2.664,4.366,4.366,0,0,1-3.423,1.311,4.37,4.37,0,0,1-3.424-1.31,3.554,3.554,0,0,0,1.207-2.665v-.7A10.344,10.344,0,0,0,16.994,30.293ZM8.127,42.854V40.637a.739.739,0,0,0-1.478,0v2.217H1.6a.114.114,0,0,1-.094-.047.108.108,0,0,1-.017-.1q.222-.754.443-1.5l.345-1.171a8.016,8.016,0,0,1,1.1-2.6A6.085,6.085,0,0,1,5.2,35.752a6.175,6.175,0,0,1,2.063-.786l4.95-.9A5.608,5.608,0,0,0,16.994,36.2a5.618,5.618,0,0,0,4.791-2.143l3.281.6c-.5.577-.894,1.082-1.139,1.417a1.458,1.458,0,0,0,0,1.729,20.075,20.075,0,0,0,5.32,5.046Zm25.86,0c-4.2,0-7.837-4.507-8.863-5.911,1.025-1.4,4.661-5.911,8.863-5.911s7.853,4.531,8.866,5.9C41.84,38.323,38.2,42.854,33.987,42.854Z" transform="translate(0 0)" fill="#bcb955"/><path d="M44.433,44a4.433,4.433,0,1,0,4.433,4.433A4.433,4.433,0,0,0,44.433,44Zm0,7.389a2.955,2.955,0,1,1,2.955-2.955A2.955,2.955,0,0,1,44.433,51.389Z" transform="translate(-10.446 -11.49)" fill="#bcb955"/></g></g></svg>