<svg xmlns="http://www.w3.org/2000/svg" xmlns:xlink="http://www.w3.org/1999/xlink" width="89.322" height="90.542" viewBox="0 0 89.322 90.542"><defs><linearGradient id="a" x1="0.5" x2="0.5" y2="1" gradientUnits="objectBoundingBox"><stop offset="0" stop-color="#fff"/><stop offset="1" stop-color="#f8f8f8"/></linearGradient><filter id="b" x="0" y="1.221" width="89.322" height="89.322" filterUnits="userSpaceOnUse"><feOffset dy="3" input="SourceAlpha"/><feGaussianBlur stdDeviation="3" result="c"/><feFlood flood-opacity="0.161"/><feComposite operator="in" in2="c"/><feComposite in="SourceGraphic"/></filter></defs><g transform="translate(-440.34 -2130)"><g transform="translate(31.579 -0.756)"><g transform="translate(358.421 2130.756)"><path d="M43.551,0A43.551,43.551,0,1,1,0,43.551,43.551,43.551,0,0,1,43.551,0Z" transform="translate(51.449)" fill="#ebe76a"/><g transform="translate(59.34 7.221)"><g transform="matrix(1, 0, 0, 1, -9, -7.22)" filter="url(#b)"><circle cx="35.661" cy="35.661" r="35.661" transform="translate(9 7.22)" fill="url(#a)"/></g></g><g transform="translate(132.845 66.53) rotate(167)"><circle cx="31.555" cy="31.555" r="31.555" transform="translate(0 0)" fill="url(#a)"/></g></g></g><g transform="translate(455.05 2139.688)"><path d="M49.25,14.312H19a.75.75,0,0,0-.75.75V29.1H9.8a.75.75,0,0,0-.75.75V44.6c0,.016,0,.033,0,.05A5.356,5.356,0,0,0,14.4,50H44.651A5.356,5.356,0,0,0,50,44.65V15.062A.75.75,0,0,0,49.25,14.312ZM10.55,44.688c0-.015,0-.032,0-.047V30.6h7.7V44.649s0,0,0,0,0,.023,0,.035a3.851,3.851,0,0,1-7.7,0Zm34.1,3.811H18.107a5.33,5.33,0,0,0,1.645-3.849c0-.016,0-.033,0-.05V29.872c0-.006,0-.011,0-.017s0-.011,0-.017V15.812H48.5V44.65A3.855,3.855,0,0,1,44.651,48.5Z" fill="#bcb955"/><path d="M58.454,48.128H38.535a.75.75,0,0,0,0,1.5H58.454a.75.75,0,0,0,0-1.5Z" transform="translate(-14.368 -16.908)" fill="#bcb955"/><path d="M58.454,56.58H38.535a.75.75,0,0,0,0,1.5H58.454a.75.75,0,0,0,0-1.5Z" transform="translate(-14.368 -21.134)" fill="#bcb955"/><path d="M58.454,65.034H38.535a.75.75,0,0,0,0,1.5H58.454a.75.75,0,0,0,0-1.5Z" transform="translate(-14.368 -25.361)" fill="#bcb955"/><path d="M58.454,73.487H38.535a.75.75,0,0,0,0,1.5H58.454a.75.75,0,0,0,0-1.5Z" transform="translate(-14.368 -29.588)" fill="#bcb955"/><path d="M58.45,23.023H38.528a.75.75,0,0,0-.75.75V32.1a.75.75,0,0,0,.75.75H58.45a.75.75,0,0,0,.75-.75V23.773A.75.75,0,0,0,58.45,23.023Zm-.75,8.324H39.278V24.523H57.7Z" transform="translate(-14.364 -4.356)" fill="#bcb955"/></g></g></svg>