<svg xmlns="http://www.w3.org/2000/svg" width="41" height="41" viewBox="0 0 41 41"><g transform="translate(0 3.417)"><path d="M14.521,31.042H4.271A4.276,4.276,0,0,1,0,26.771V6.271A4.276,4.276,0,0,1,4.271,2H29.9a4.276,4.276,0,0,1,4.271,4.271V13.1a.854.854,0,0,1-1.708,0V6.271A2.566,2.566,0,0,0,29.9,3.708H4.271A2.566,2.566,0,0,0,1.708,6.271v20.5a2.566,2.566,0,0,0,2.563,2.563h10.25a.854.854,0,0,1,0,1.708Z" transform="translate(0 -2)" fill="#bcb955"/></g><g transform="translate(0 10.25)"><path d="M33.313,7.708H.854A.854.854,0,0,1,.854,6H33.313a.854.854,0,1,1,0,1.708Z" transform="translate(0 -6)" fill="#bcb955"/></g><g transform="translate(6.833)"><path d="M4.854,8.542A.854.854,0,0,1,4,7.688V.854a.854.854,0,0,1,1.708,0V7.688A.854.854,0,0,1,4.854,8.542Z" transform="translate(-4)" fill="#bcb955"/></g><g transform="translate(25.625)"><path d="M15.854,8.542A.854.854,0,0,1,15,7.688V.854a.854.854,0,0,1,1.708,0V7.688A.854.854,0,0,1,15.854,8.542Z" transform="translate(-15)" fill="#bcb955"/></g><g transform="translate(23.916 25.625)"><path d="M18.271,23.542a.86.86,0,0,1-.6-.249L14.25,19.876a.854.854,0,0,1,1.208-1.208l2.771,2.771,5.378-6.147a.854.854,0,1,1,1.285,1.126l-5.979,6.833a.849.849,0,0,1-.613.29h-.027Z" transform="translate(-14 -15)" fill="#bcb955"/></g><g transform="translate(18.792 18.792)"><path d="M22.1,33.208a11.1,11.1,0,1,1,11.1-11.1A11.117,11.117,0,0,1,22.1,33.208Zm0-20.5a9.4,9.4,0,1,0,9.4,9.4A9.407,9.407,0,0,0,22.1,12.708Z" transform="translate(-11 -11)" fill="#bcb955"/></g></svg>