<svg xmlns="http://www.w3.org/2000/svg" width="40.951" height="35.688" viewBox="0 0 40.951 35.688"><g transform="translate(-9.05 -14.312)"><path d="M49.25,14.312H19a.75.75,0,0,0-.75.75V29.1H9.8a.75.75,0,0,0-.75.75V44.6c0,.016,0,.033,0,.05A5.356,5.356,0,0,0,14.4,50H44.651A5.356,5.356,0,0,0,50,44.65V15.062A.75.75,0,0,0,49.25,14.312ZM10.55,44.688c0-.015,0-.032,0-.047V30.6h7.7V44.649s0,0,0,0,0,.023,0,.035a3.851,3.851,0,0,1-7.7,0Zm34.1,3.811H18.107a5.33,5.33,0,0,0,1.645-3.849c0-.016,0-.033,0-.05V29.872c0-.006,0-.011,0-.017s0-.011,0-.017V15.812H48.5V44.65A3.855,3.855,0,0,1,44.651,48.5Z" fill="#bcb955"/><path d="M58.454,48.128H38.535a.75.75,0,0,0,0,1.5H58.454a.75.75,0,0,0,0-1.5Z" transform="translate(-14.368 -16.908)" fill="#bcb955"/><path d="M58.454,56.58H38.535a.75.75,0,0,0,0,1.5H58.454a.75.75,0,0,0,0-1.5Z" transform="translate(-14.368 -21.134)" fill="#bcb955"/><path d="M58.454,65.034H38.535a.75.75,0,0,0,0,1.5H58.454a.75.75,0,0,0,0-1.5Z" transform="translate(-14.368 -25.361)" fill="#bcb955"/><path d="M58.454,73.487H38.535a.75.75,0,0,0,0,1.5H58.454a.75.75,0,0,0,0-1.5Z" transform="translate(-14.368 -29.588)" fill="#bcb955"/><path d="M58.45,23.023H38.528a.75.75,0,0,0-.75.75V32.1a.75.75,0,0,0,.75.75H58.45a.75.75,0,0,0,.75-.75V23.773A.75.75,0,0,0,58.45,23.023Zm-.75,8.324H39.278V24.523H57.7Z" transform="translate(-14.364 -4.356)" fill="#bcb955"/></g></svg>