<svg xmlns="http://www.w3.org/2000/svg" width="34.391" height="50.149" viewBox="0 0 34.391 50.149"><g transform="translate(-11.118 -1.047)"><g transform="translate(15.12 2)"><g transform="translate(7.264)"><path d="M43.6,38.089a3.167,3.167,0,0,1-3.2,3.2H28.6a3.167,3.167,0,0,1-3.2-3.2V32.7" transform="translate(-25.322 -8.721)" fill="none" stroke="#bcb955" stroke-linecap="round" stroke-linejoin="round" stroke-miterlimit="10" stroke-width="1.5"/><path d="M25.3,14.809V5.2A3.167,3.167,0,0,1,28.5,2H40.3a3.167,3.167,0,0,1,3.2,3.2v6.17l3.046-1.328a1.888,1.888,0,0,0-1.562-3.437l-1.562.7" transform="translate(-25.3 -2)" fill="none" stroke="#bcb955" stroke-linecap="round" stroke-linejoin="round" stroke-miterlimit="10" stroke-width="1.5"/><path d="M30.8,2.1l1.093,1.8h7.5l1.093-1.8" transform="translate(-26.504 -2.022)" fill="none" stroke="#bcb955" stroke-linecap="round" stroke-linejoin="round" stroke-miterlimit="10" stroke-width="1.5"/><path d="M34.9,40.2h3.28" transform="translate(-27.402 -10.363)" fill="none" stroke="#bcb955" stroke-linecap="round" stroke-linejoin="round" stroke-miterlimit="10" stroke-width="1.5"/></g><g transform="translate(0 11.019)"><path d="M17.6,42.683s2.734-4.3,1.8-8.045a12.925,12.925,0,0,1,.859-7.733c.234-.469.469-.859.7-1.25a16.517,16.517,0,0,0,1.718-4.218,1.25,1.25,0,0,1,1.8-.781c1.093.625,1.484,1.8,1.172,3.437a8.1,8.1,0,0,1-1.562,3.437l-.391.547" transform="translate(-16.35 -17.07)" fill="none" stroke="#bcb955" stroke-linecap="round" stroke-linejoin="round" stroke-miterlimit="10" stroke-width="1.5"/><path d="M39.067,43.7A4.5,4.5,0,0,1,36.8,47.215a14.267,14.267,0,0,0-5.7,6.4" transform="translate(-19.306 -22.149)" fill="none" stroke="#bcb955" stroke-linecap="round" stroke-linejoin="round" stroke-miterlimit="10" stroke-width="1.5"/><path d="M42.648,20.241a1.834,1.834,0,0,1,.937-2.5l3.28-1.484a1.834,1.834,0,0,1,2.421.937v.078a1.834,1.834,0,0,1-.937,2.421l-3.28,1.484A1.86,1.86,0,0,1,42.648,20.241Z" transform="translate(-21.794 -16.108)" fill="none" stroke="#bcb955" stroke-linecap="round" stroke-linejoin="round" stroke-miterlimit="10" stroke-width="1.5"/><path d="M42.648,28.041a1.834,1.834,0,0,1,.937-2.5l3.28-1.484A1.834,1.834,0,0,1,49.287,25v.078a1.834,1.834,0,0,1-.937,2.421l-3.28,1.484A1.86,1.86,0,0,1,42.648,28.041Z" transform="translate(-21.794 -17.815)" fill="none" stroke="#bcb955" stroke-linecap="round" stroke-linejoin="round" stroke-miterlimit="10" stroke-width="1.5"/><path d="M42.648,35.741a1.834,1.834,0,0,1,.937-2.5l3.28-1.484a1.834,1.834,0,0,1,2.421.937v.078a1.834,1.834,0,0,1-.937,2.421l-3.28,1.484a1.772,1.772,0,0,1-2.421-.937Z" transform="translate(-21.794 -19.501)" fill="none" stroke="#bcb955" stroke-linecap="round" stroke-linejoin="round" stroke-miterlimit="10" stroke-width="1.5"/><circle cx="1.328" cy="1.328" r="1.328" transform="translate(0 28.034)" fill="none" stroke="#bcb955" stroke-linecap="round" stroke-linejoin="round" stroke-miterlimit="10" stroke-width="1.5"/></g></g><path d="M24.1,60.4,12.777,54.154a1.537,1.537,0,0,1-.625-2.031l1.64-3.046a1.537,1.537,0,0,1,2.031-.625L27.149,54.7a1.537,1.537,0,0,1,.625,2.031l-1.64,3.046A1.537,1.537,0,0,1,24.1,60.4Z" transform="translate(0 -10.133)" fill="none" stroke="#bcb955" stroke-linecap="round" stroke-linejoin="round" stroke-miterlimit="10" stroke-width="1.5"/></g></svg>