<svg xmlns="http://www.w3.org/2000/svg" width="70.965" height="70.965" viewBox="0 0 70.965 70.965"><path d="M66.234,0H4.731A4.731,4.731,0,0,0,0,4.731v61.5a4.731,4.731,0,0,0,4.731,4.731h61.5a4.731,4.731,0,0,0,4.731-4.731V4.731A4.731,4.731,0,0,0,66.234,0ZM4.731,2.366h61.5A2.366,2.366,0,0,1,68.6,4.731V9.462H2.366V4.731A2.366,2.366,0,0,1,4.731,2.366ZM66.234,68.6H4.731a2.366,2.366,0,0,1-2.366-2.366V11.828H68.6V66.234A2.366,2.366,0,0,1,66.234,68.6Z" fill="#ebe76a"/><path d="M5.183,6.366H6.366A1.183,1.183,0,1,0,6.366,4H5.183a1.183,1.183,0,1,0,0,2.366Z" transform="translate(0.731 0.731)" fill="#ebe76a"/><path d="M10.183,6.366h1.183a1.183,1.183,0,0,0,0-2.366H10.183a1.183,1.183,0,1,0,0,2.366Z" transform="translate(1.645 0.731)" fill="#ebe76a"/><path d="M15.183,6.366h1.183a1.183,1.183,0,0,0,0-2.366H15.183a1.183,1.183,0,0,0,0,2.366Z" transform="translate(2.559 0.731)" fill="#ebe76a"/><path d="M49.183,6.366h7.1a1.183,1.183,0,1,0,0-2.366h-7.1a1.183,1.183,0,1,0,0,2.366Z" transform="translate(8.772 0.731)" fill="#ebe76a"/><path d="M59.407,13H9.731A4.731,4.731,0,0,0,5,17.731V57.945a4.731,4.731,0,0,0,4.731,4.731H59.407a4.731,4.731,0,0,0,4.731-4.731V17.731A4.731,4.731,0,0,0,59.407,13ZM9.731,15.366H59.407a2.366,2.366,0,0,1,2.366,2.366V43.752H7.366V17.731A2.366,2.366,0,0,1,9.731,15.366ZM59.407,60.31H9.731a2.366,2.366,0,0,1-2.366-2.366V46.117H61.772V57.945A2.366,2.366,0,0,1,59.407,60.31Z" transform="translate(0.914 2.376)" fill="#ebe76a"/><path d="M17.276,45.858,13.61,43.4A2.332,2.332,0,0,0,10,45.262v4.925a2.335,2.335,0,0,0,3.612,1.866l3.667-2.462a2.264,2.264,0,0,0,0-3.733Zm-4.911,4.183V45.407l3.5,2.285Z" transform="translate(1.828 7.861)" fill="#ebe76a"/><path d="M14.62,27.534l6.653,2.215v7.358a3.548,3.548,0,0,0,3.548,3.548H41.38a3.548,3.548,0,0,0,3.548-3.548V29.749l5.914-1.968v4.813a3.548,3.548,0,0,0-2.366,3.331V38.29a2.366,2.366,0,0,0,2.366,2.366h2.366a2.366,2.366,0,0,0,2.366-2.366V35.925a3.548,3.548,0,0,0-2.366-3.331V25.28a2.342,2.342,0,0,0-1.626-2.254L33.854,17.119a2.389,2.389,0,0,0-1.5,0l-17.729,5.9a2.4,2.4,0,0,0,0,4.512Zm27.943,9.573A1.183,1.183,0,0,1,41.38,38.29H24.821a1.183,1.183,0,0,1-1.183-1.183v-6.57l8.709,2.9a2.474,2.474,0,0,0,1.5,0l8.711-2.9Zm8.279,1.183V35.925a1.183,1.183,0,1,1,2.366,0V38.29ZM15.368,25.27l17.733-5.9,17.731,5.922L33.1,31.194l-17.729-5.9Z" transform="translate(2.382 3.106)" fill="#ebe76a"/><path d="M54.3,46.366H35.158a3.527,3.527,0,0,0-6.661,0H21.183a1.183,1.183,0,1,0,0,2.366H28.5a3.527,3.527,0,0,0,6.661,0H54.3a1.183,1.183,0,1,0,0-2.366ZM31.828,48.731a1.183,1.183,0,1,1,1.183-1.183A1.183,1.183,0,0,1,31.828,48.731Z" transform="translate(3.655 8.041)" fill="#ebe76a"/><path d="M34.1,24.183A1.183,1.183,0,0,0,32.914,23H28.183a1.183,1.183,0,1,0,0,2.366h4.731A1.183,1.183,0,0,0,34.1,24.183Z" transform="translate(4.934 4.203)" fill="#ebe76a"/></svg>