<svg xmlns="http://www.w3.org/2000/svg" width="77.334" height="81.303" viewBox="0 0 77.334 81.303"><path d="M419.343,78.846a1.191,1.191,0,0,0,1.191,1.191h4.933a1.191,1.191,0,0,0,0-2.382h-4.933A1.191,1.191,0,0,0,419.343,78.846Z" transform="translate(-354.737 -65.324)" fill="#ebe76a"/><path d="M405.791,21.364l3.7-3.263a1.191,1.191,0,1,0-1.576-1.786l-3.7,3.263a1.191,1.191,0,0,0,1.576,1.786Z" transform="translate(-341.673 -13.474)" fill="#ebe76a"/><path d="M404.215,120.83l3.7,3.263a1.191,1.191,0,1,0,1.576-1.786l-3.7-3.263a1.191,1.191,0,0,0-1.576,1.786Z" transform="translate(-341.673 -99.889)" fill="#ebe76a"/><path d="M47.784,80.037h4.933a1.191,1.191,0,1,0,0-2.382H47.784a1.191,1.191,0,1,0,0,2.382Z" transform="translate(-41.178 -65.324)" fill="#ebe76a"/><path d="M70.293,18.1l3.7,3.263a1.191,1.191,0,0,0,1.576-1.786l-3.7-3.263A1.191,1.191,0,0,0,70.293,18.1Z" transform="translate(-60.776 -13.472)" fill="#ebe76a"/><path d="M73.993,119.044l-3.7,3.263a1.191,1.191,0,0,0,1.576,1.786l3.7-3.263a1.191,1.191,0,0,0-1.576-1.786Z" transform="translate(-60.776 -99.89)" fill="#ebe76a"/><path d="M245.553,291.809a5.167,5.167,0,0,0,5.161-5.161v-5.9a1.191,1.191,0,1,0-2.382,0v5.9a2.782,2.782,0,0,1-2.779,2.779h-1.925a1.191,1.191,0,1,0,0,2.382Z" transform="translate(-205.923 -235.169)" fill="#ebe76a"/><path d="M182.954,392.4a1.191,1.191,0,0,0,0,1.684,16.007,16.007,0,0,0,22.612,0,1.191,1.191,0,0,0-1.684-1.684,13.622,13.622,0,0,1-19.243,0A1.192,1.192,0,0,0,182.954,392.4Z" transform="translate(-155.593 -329.793)" fill="#ebe76a"/><path d="M87.312,36.4a7.361,7.361,0,0,0-7.271-1.479l-.2.067L80.1,30.8c.052-.834.069-1.679.05-2.51a1.191,1.191,0,0,0-1.191-1.164H63.683L69.8,20.9a12.188,12.188,0,0,0,3.51-9.078,12.289,12.289,0,0,0-21.186-8,1.332,1.332,0,0,1-1.92,0,12.29,12.29,0,0,0-21.186,8,12.187,12.187,0,0,0,3.51,9.078l.235.239a1.191,1.191,0,0,0,1.7-1.668l-.235-.24a9.826,9.826,0,0,1-2.829-7.32,9.907,9.907,0,0,1,17.08-6.446,3.714,3.714,0,0,0,5.372,0,9.908,9.908,0,0,1,17.08,6.446,9.828,9.828,0,0,1-2.829,7.32l-7.754,7.9H41.981L38.3,23.374a1.191,1.191,0,0,0-1.7,1.668l2.048,2.087H23.366a1.191,1.191,0,0,0-1.191,1.163c-.019.831,0,1.676.05,2.51l.261,4.182-.2-.067a7.435,7.435,0,0,0-9.641,8.511l1.291,6.454A10.749,10.749,0,0,0,24.11,58.494a27.118,27.118,0,0,0,3.135,8.831,1.191,1.191,0,1,0,2.075-1.17,24.831,24.831,0,0,1-3.17-10.732L24.6,30.654c-.024-.38-.04-.762-.047-1.143H77.771c-.008.382-.023.764-.047,1.143L76.176,55.423A25.062,25.062,0,0,1,32.392,70.465a1.191,1.191,0,1,0-1.783,1.579A27.446,27.446,0,0,0,78.214,58.494a10.752,10.752,0,0,0,1.634-.176,1.191,1.191,0,1,0-.437-2.342,8.311,8.311,0,0,1-.9.117c.031-.384-.036.649.832-13.234l3.006-1a.443.443,0,0,1,.053-.014.193.193,0,0,1,.09.065.22.22,0,0,1,.018.025.2.2,0,0,1-.006.062l-.855,4.275a1.191,1.191,0,0,0,2.336.467l.855-4.274a2.442,2.442,0,0,0-.506-2.064,2.459,2.459,0,0,0-2.739-.8l-2.092.7.172-2.746,1.114-.371a5.053,5.053,0,0,1,6.552,5.784l-1.291,6.454a8.3,8.3,0,0,1-2.377,4.356,1.191,1.191,0,0,0,1.656,1.712,10.667,10.667,0,0,0,3.057-5.6l1.291-6.454a7.36,7.36,0,0,0-2.37-7.032ZM16.271,49.415,14.98,42.961a5.053,5.053,0,0,1,6.552-5.784l1.114.371.172,2.746-2.092-.7a2.459,2.459,0,0,0-2.739.8,2.442,2.442,0,0,0-.506,2.063l.855,4.275a1.191,1.191,0,1,0,2.336-.467l-.855-4.275a.242.242,0,0,1-.006-.06.138.138,0,0,1,.018-.026.222.222,0,0,1,.084-.065.24.24,0,0,1,.059.014l3.006,1c.869,13.9.8,12.859.832,13.234a8.362,8.362,0,0,1-7.539-6.678Z" transform="translate(-12.496 0)" fill="#ebe76a"/></svg>