<svg xmlns="http://www.w3.org/2000/svg" width="75.051" height="97.938" viewBox="0 0 75.051 97.938"><path d="M134.2,72.215l-6.767-14.386.31-.286a6.942,6.942,0,0,0,1.082-9l-7.96-11.955a21.153,21.153,0,0,0-14.6-9.207,14.687,14.687,0,1,0-17.777,0,21.153,21.153,0,0,0-14.6,9.207L65.918,48.539a6.94,6.94,0,0,0,1.082,9l.31.286L60.535,72.217a7.3,7.3,0,0,0,6.6,10.4H82.682v9.791a6.527,6.527,0,0,0,6.527,6.527h3.264a6.487,6.487,0,0,0,4.9-2.255,6.487,6.487,0,0,0,4.9,2.255h3.264a6.527,6.527,0,0,0,6.527-6.527V82.62H127.6a7.3,7.3,0,0,0,6.6-10.4ZM97.368,27.138a11.423,11.423,0,0,1-10.3-6.527H94.1a4.874,4.874,0,0,0,3.264-1.25,4.874,4.874,0,0,0,3.264,1.25h7.041A11.423,11.423,0,0,1,97.368,27.138Zm7.978-19.582H89.39A11.384,11.384,0,0,1,105.346,7.556ZM87.07,10.819h20.61a11.058,11.058,0,0,1,.981,6.527h-8.029A1.632,1.632,0,0,1,99,15.715a1.632,1.632,0,1,0-3.264,0A1.632,1.632,0,0,1,94.1,17.347H86.076a11.014,11.014,0,0,1,.987-6.527ZM68.63,50.35,76.6,38.4a17.911,17.911,0,0,1,14.934-8h11.677a17.911,17.911,0,0,1,14.934,8l7.97,11.956a3.694,3.694,0,0,1-.574,4.789L117,62.992a2.965,2.965,0,1,1-3.858-4.5l5.385-4.665a3.249,3.249,0,0,0,.517-4.362l-6.992-9.791V38.56a1.632,1.632,0,1,0-3.264,0V54.878H85.946V38.56a1.632,1.632,0,0,0-3.264,0v1.108l-6.991,9.791a3.251,3.251,0,0,0,.517,4.365l5.406,4.683A2.965,2.965,0,1,1,77.747,63L69.2,55.14a3.691,3.691,0,0,1-.574-4.789h0Zm14.052,4.763-4.336-3.753,4.336-6.075Zm3.264,3.029h22.846v3.264H85.946Zm26.109-12.857,4.336,6.07-4.336,3.758ZM74.885,79.356l1.24-6.2a1.632,1.632,0,0,0-3.2-.64l-1.369,6.841H67.134a3.956,3.956,0,0,1-3.4-1.87,4.016,4.016,0,0,1-.25-3.88L69.82,60.145l5.731,5.269a6.077,6.077,0,0,0,7.131.816V79.357Zm30.642,16.318h-3.264A3.264,3.264,0,0,1,99,92.411V71.2a1.632,1.632,0,0,0-3.264,0V92.411a3.264,3.264,0,0,1-3.264,3.264H89.209a3.264,3.264,0,0,1-3.264-3.264V64.67h22.846V92.411a3.263,3.263,0,0,1-3.264,3.264ZM131,77.486a3.957,3.957,0,0,1-3.4,1.87h-4.421L121.812,72.5a1.632,1.632,0,0,0-3.2.64l1.24,6.2h-7.8V66.223a6.077,6.077,0,0,0,7.144-.816l5.711-5.258,6.331,13.459A4.023,4.023,0,0,1,131,77.486Z" transform="translate(-59.844 -1)" fill="#ebe76a"/></svg>